<svg xmlns="http://www.w3.org/2000/svg" xmlns:xlink="http://www.w3.org/1999/xlink" width="500" zoomAndPan="magnify" viewBox="0 0 375 374.999991" height="500" preserveAspectRatio="xMidYMid meet" version="1.0"><defs><g/></defs><rect x="-37.5" width="450" fill="#ffffff" y="-37.499999" height="449.999989" fill-opacity="1"/><rect x="-37.5" width="450" fill="#ffffff" y="-37.499999" height="449.999989" fill-opacity="1"/><rect x="-37.5" width="450" fill="#04387d" y="-37.499999" height="449.999989" fill-opacity="1"/><g fill="#ffffff" fill-opacity="1"><g transform="translate(38.251746, 243.356492)"><g><path d="M 38.96875 -0.640625 C 33.402344 -0.640625 28.90625 -5.140625 28.90625 -10.921875 L 28.90625 -137.894531 C 28.90625 -143.675781 33.402344 -148.171875 38.96875 -148.171875 C 39.398438 -148.171875 39.828125 -148.597656 39.828125 -149.027344 C 39.828125 -149.242188 39.398438 -149.667969 38.96875 -149.667969 L 9.847656 -149.667969 C 9.421875 -149.667969 9.207031 -149.242188 9.207031 -149.027344 C 9.207031 -148.597656 9.421875 -148.171875 9.847656 -148.171875 C 15.417969 -148.171875 20.128906 -143.675781 20.128906 -137.894531 L 20.128906 -10.921875 C 20.128906 -5.140625 15.417969 -0.640625 9.847656 -0.640625 C 9.421875 -0.640625 9.207031 -0.214844 9.207031 0.214844 C 9.207031 0.429688 9.421875 0.855469 9.847656 0.855469 L 38.96875 0.855469 C 39.398438 0.855469 39.828125 0.429688 39.828125 0.214844 C 39.828125 0 39.613281 -0.214844 39.613281 -0.429688 C 39.398438 -0.640625 39.183594 -0.640625 38.96875 -0.640625 Z M 38.96875 -0.640625 "/></g></g></g><g fill="#ffffff" fill-opacity="1"><g transform="translate(63.51435, 243.356492)"><g><path d="M 173.652344 -0.640625 C 168.085938 -0.640625 163.375 -5.140625 163.375 -10.707031 L 163.375 -138.105469 C 163.375 -143.675781 168.085938 -148.171875 173.652344 -148.171875 C 174.078125 -148.171875 174.292969 -148.597656 174.292969 -149.027344 C 174.292969 -149.242188 174.078125 -149.667969 173.652344 -149.667969 L 155.449219 -149.667969 C 155.238281 -149.667969 155.238281 -149.667969 155.023438 -149.457031 C 154.808594 -149.457031 154.808594 -149.457031 154.808594 -149.242188 L 92.070312 -8.566406 L 29.335938 -149.242188 C 29.335938 -149.457031 29.121094 -149.667969 28.691406 -149.667969 L 9.847656 -149.667969 C 9.421875 -149.667969 9.207031 -149.242188 9.207031 -149.027344 C 9.207031 -148.597656 9.421875 -148.171875 9.847656 -148.171875 C 15.417969 -148.171875 20.128906 -143.675781 20.128906 -137.894531 L 20.128906 -10.921875 C 20.128906 -5.140625 15.417969 -0.640625 9.847656 -0.640625 C 9.421875 -0.640625 9.207031 -0.214844 9.207031 0.214844 C 9.207031 0.429688 9.421875 0.855469 9.847656 0.855469 L 31.691406 0.855469 C 32.117188 0.855469 32.546875 0.429688 32.546875 0.214844 C 32.546875 -0.214844 32.117188 -0.640625 31.691406 -0.640625 C 26.121094 -0.640625 21.625 -5.140625 21.625 -10.921875 L 21.625 -145.601562 L 85.003906 -2.996094 L 87.359375 2.570312 C 87.574219 2.570312 87.574219 2.785156 87.574219 2.785156 C 87.574219 2.785156 87.574219 2.785156 87.789062 2.785156 C 87.789062 2.996094 88.003906 2.996094 88.003906 2.996094 C 88.21875 2.996094 88.21875 2.996094 88.429688 2.785156 C 88.644531 2.785156 88.644531 2.570312 88.644531 2.570312 L 92.714844 -6.421875 L 154.59375 -145.601562 L 154.59375 -10.921875 C 154.59375 -5.140625 150.097656 -0.640625 144.316406 -0.640625 C 143.886719 -0.640625 143.675781 -0.214844 143.675781 0.214844 C 143.675781 0.429688 143.886719 0.855469 144.316406 0.855469 L 173.652344 0.855469 C 174.078125 0.855469 174.292969 0.429688 174.292969 0.214844 C 174.292969 -0.214844 174.078125 -0.640625 173.652344 -0.640625 Z M 173.652344 -0.640625 "/></g></g></g><g fill="#ffffff" fill-opacity="1"><g transform="translate(223.235999, 243.356492)"><g><path d="M 135.539062 -126.542969 L 124.832031 -149.242188 C 124.832031 -149.457031 124.402344 -149.667969 124.191406 -149.667969 C 124.191406 -149.667969 65.734375 -149.667969 65.734375 -149.667969 L 14.558594 -149.667969 C 14.132812 -149.667969 13.917969 -149.457031 13.917969 -149.242188 L 3.210938 -126.542969 C 2.996094 -126.117188 3.210938 -125.6875 3.425781 -125.472656 C 3.640625 -125.472656 3.640625 -125.472656 3.855469 -125.472656 C 4.066406 -125.472656 4.28125 -125.6875 4.496094 -125.902344 C 10.277344 -138.105469 25.050781 -148.171875 37.257812 -148.171875 L 54.816406 -148.171875 C 60.382812 -148.171875 64.878906 -143.675781 65.09375 -138.105469 L 65.09375 -10.707031 C 64.878906 -5.140625 60.382812 -0.640625 54.816406 -0.640625 C 54.386719 -0.640625 53.957031 -0.214844 53.957031 0.214844 C 53.957031 0.429688 54.386719 0.855469 54.816406 0.855469 L 83.933594 0.855469 C 84.363281 0.855469 84.792969 0.429688 84.792969 0.214844 C 84.792969 -0.214844 84.363281 -0.640625 83.933594 -0.640625 C 78.367188 -0.640625 73.65625 -5.140625 73.65625 -10.921875 L 73.65625 -137.894531 C 73.65625 -143.675781 78.367188 -148.171875 83.933594 -148.171875 L 101.492188 -148.171875 C 113.699219 -148.171875 128.472656 -138.105469 134.253906 -125.902344 C 134.253906 -125.6875 134.679688 -125.472656 134.894531 -125.472656 C 134.894531 -125.472656 135.109375 -125.472656 135.109375 -125.472656 C 135.539062 -125.6875 135.75 -126.117188 135.539062 -126.542969 Z M 135.539062 -126.542969 "/></g></g></g><g fill="#f68bd5" fill-opacity="1"><g transform="translate(77.253362, 289.976576)"><g><path d="M 2.4375 0 L 1.421875 0 L 1.421875 -9.390625 L 3.0625 -9.390625 L 5.90625 -1.4375 L 6.03125 -1.4375 L 8.890625 -9.390625 L 10.46875 -9.390625 L 10.46875 0 L 9.421875 0 L 9.421875 -7.65625 L 9.25 -7.6875 L 6.484375 0 L 5.390625 0 L 2.609375 -7.6875 L 2.4375 -7.65625 Z M 2.4375 0 "/></g></g><g transform="translate(89.143009, 289.976576)"><g><path d="M 6.75 -3.296875 L 1.875 -3.296875 C 1.90625 -2.441406 2.113281 -1.8125 2.5 -1.40625 C 2.882812 -1 3.410156 -0.796875 4.078125 -0.796875 C 4.585938 -0.796875 4.992188 -0.882812 5.296875 -1.0625 C 5.609375 -1.25 5.851562 -1.535156 6.03125 -1.921875 L 6.15625 -1.921875 L 6.84375 -1.515625 C 6.632812 -1.003906 6.300781 -0.597656 5.84375 -0.296875 C 5.394531 -0.00390625 4.804688 0.140625 4.078125 0.140625 C 3.390625 0.140625 2.800781 0.00390625 2.3125 -0.265625 C 1.820312 -0.535156 1.441406 -0.941406 1.171875 -1.484375 C 0.910156 -2.035156 0.78125 -2.722656 0.78125 -3.546875 C 0.78125 -4.347656 0.921875 -5.023438 1.203125 -5.578125 C 1.484375 -6.128906 1.863281 -6.539062 2.34375 -6.8125 C 2.832031 -7.082031 3.390625 -7.21875 4.015625 -7.21875 C 4.921875 -7.21875 5.628906 -6.960938 6.140625 -6.453125 C 6.648438 -5.941406 6.90625 -5.179688 6.90625 -4.171875 C 6.90625 -3.773438 6.898438 -3.507812 6.890625 -3.375 Z M 5.875 -4.171875 C 5.863281 -4.929688 5.695312 -5.476562 5.375 -5.8125 C 5.0625 -6.15625 4.609375 -6.328125 4.015625 -6.328125 C 3.390625 -6.328125 2.898438 -6.15625 2.546875 -5.8125 C 2.203125 -5.46875 1.988281 -4.921875 1.90625 -4.171875 Z M 5.875 -4.171875 "/></g></g><g transform="translate(96.696886, 289.976576)"><g><path d="M 1.234375 0 L 1.234375 -7.078125 L 2.234375 -7.078125 L 2.234375 -5.96875 L 2.359375 -5.9375 C 2.597656 -6.351562 2.898438 -6.671875 3.265625 -6.890625 C 3.628906 -7.109375 4.078125 -7.21875 4.609375 -7.21875 C 5.460938 -7.21875 6.078125 -7 6.453125 -6.5625 C 6.835938 -6.132812 7.03125 -5.46875 7.03125 -4.5625 L 7.03125 0 L 5.984375 0 L 5.984375 -4.53125 C 5.984375 -4.957031 5.925781 -5.300781 5.8125 -5.5625 C 5.707031 -5.820312 5.539062 -6.007812 5.3125 -6.125 C 5.082031 -6.25 4.78125 -6.3125 4.40625 -6.3125 C 3.769531 -6.3125 3.253906 -6.097656 2.859375 -5.671875 C 2.472656 -5.253906 2.28125 -4.578125 2.28125 -3.640625 L 2.28125 0 Z M 1.234375 0 "/></g></g><g transform="translate(104.854559, 289.976576)"><g><path d="M 1.765625 -8.453125 C 1.535156 -8.453125 1.351562 -8.519531 1.21875 -8.65625 C 1.082031 -8.800781 1.015625 -8.976562 1.015625 -9.1875 C 1.015625 -9.40625 1.082031 -9.582031 1.21875 -9.71875 C 1.351562 -9.863281 1.535156 -9.9375 1.765625 -9.9375 C 1.984375 -9.9375 2.160156 -9.863281 2.296875 -9.71875 C 2.441406 -9.582031 2.515625 -9.40625 2.515625 -9.1875 C 2.515625 -8.976562 2.441406 -8.800781 2.296875 -8.65625 C 2.160156 -8.519531 1.984375 -8.453125 1.765625 -8.453125 Z M 0.34375 3 C 0.125 3 -0.0664062 2.984375 -0.234375 2.953125 C -0.410156 2.921875 -0.578125 2.875 -0.734375 2.8125 L -0.578125 2.015625 L -0.453125 1.96875 C -0.242188 2.050781 -0.0234375 2.09375 0.203125 2.09375 C 0.535156 2.09375 0.789062 1.984375 0.96875 1.765625 C 1.144531 1.546875 1.234375 1.226562 1.234375 0.8125 L 1.234375 -7.078125 L 2.28125 -7.078125 L 2.28125 0.78125 C 2.28125 1.488281 2.109375 2.035156 1.765625 2.421875 C 1.429688 2.804688 0.957031 3 0.34375 3 Z M 0.34375 3 "/></g></g><g transform="translate(108.368139, 289.976576)"><g><path d="M 2.921875 0.140625 C 2.222656 0.140625 1.675781 -0.0390625 1.28125 -0.40625 C 0.894531 -0.769531 0.703125 -1.289062 0.703125 -1.96875 C 0.703125 -2.394531 0.785156 -2.75 0.953125 -3.03125 C 1.128906 -3.320312 1.398438 -3.554688 1.765625 -3.734375 C 2.128906 -3.921875 2.601562 -4.0625 3.1875 -4.15625 C 3.707031 -4.25 4.097656 -4.347656 4.359375 -4.453125 C 4.628906 -4.554688 4.8125 -4.675781 4.90625 -4.8125 C 5 -4.945312 5.046875 -5.113281 5.046875 -5.3125 C 5.046875 -5.632812 4.929688 -5.878906 4.703125 -6.046875 C 4.484375 -6.222656 4.132812 -6.3125 3.65625 -6.3125 C 3.195312 -6.3125 2.800781 -6.222656 2.46875 -6.046875 C 2.144531 -5.867188 1.84375 -5.601562 1.5625 -5.25 L 1.4375 -5.25 L 0.921875 -5.96875 C 1.222656 -6.351562 1.601562 -6.65625 2.0625 -6.875 C 2.53125 -7.101562 3.0625 -7.21875 3.65625 -7.21875 C 4.488281 -7.21875 5.101562 -7.035156 5.5 -6.671875 C 5.894531 -6.304688 6.09375 -5.800781 6.09375 -5.15625 L 6.09375 -1.390625 C 6.09375 -0.992188 6.257812 -0.796875 6.59375 -0.796875 C 6.707031 -0.796875 6.8125 -0.816406 6.90625 -0.859375 L 7 -0.828125 L 7.125 -0.109375 C 7.050781 -0.0546875 6.945312 -0.0195312 6.8125 0 C 6.6875 0.03125 6.5625 0.046875 6.4375 0.046875 C 6.039062 0.046875 5.742188 -0.0351562 5.546875 -0.203125 C 5.347656 -0.378906 5.222656 -0.632812 5.171875 -0.96875 L 5.03125 -0.96875 C 4.832031 -0.601562 4.5625 -0.328125 4.21875 -0.140625 C 3.875 0.046875 3.441406 0.140625 2.921875 0.140625 Z M 3.15625 -0.703125 C 3.550781 -0.703125 3.890625 -0.789062 4.171875 -0.96875 C 4.460938 -1.15625 4.6875 -1.410156 4.84375 -1.734375 C 5 -2.066406 5.078125 -2.453125 5.078125 -2.890625 L 5.078125 -3.78125 L 4.953125 -3.8125 C 4.796875 -3.695312 4.601562 -3.601562 4.375 -3.53125 C 4.144531 -3.457031 3.828125 -3.390625 3.421875 -3.328125 C 3.015625 -3.273438 2.6875 -3.1875 2.4375 -3.0625 C 2.195312 -2.945312 2.023438 -2.800781 1.921875 -2.625 C 1.816406 -2.445312 1.765625 -2.226562 1.765625 -1.96875 C 1.765625 -1.550781 1.882812 -1.234375 2.125 -1.015625 C 2.375 -0.804688 2.71875 -0.703125 3.15625 -0.703125 Z M 3.15625 -0.703125 "/></g></g><g transform="translate(115.697198, 289.976576)"><g><path d="M 3.65625 3 C 2.53125 3 1.710938 2.8125 1.203125 2.4375 C 0.691406 2.070312 0.4375 1.582031 0.4375 0.96875 C 0.4375 0.5625 0.554688 0.238281 0.796875 0 C 1.035156 -0.226562 1.382812 -0.394531 1.84375 -0.5 L 1.84375 -0.625 C 1.625 -0.75 1.457031 -0.894531 1.34375 -1.0625 C 1.238281 -1.226562 1.1875 -1.425781 1.1875 -1.65625 C 1.1875 -1.9375 1.269531 -2.160156 1.4375 -2.328125 C 1.613281 -2.503906 1.875 -2.632812 2.21875 -2.71875 L 2.21875 -2.859375 C 1.445312 -3.265625 1.0625 -3.925781 1.0625 -4.84375 C 1.0625 -5.300781 1.164062 -5.707031 1.375 -6.0625 C 1.582031 -6.425781 1.878906 -6.707031 2.265625 -6.90625 C 2.660156 -7.113281 3.117188 -7.21875 3.640625 -7.21875 C 4.234375 -7.21875 4.726562 -7.085938 5.125 -6.828125 C 5.269531 -6.992188 5.378906 -7.171875 5.453125 -7.359375 C 5.535156 -7.554688 5.585938 -7.773438 5.609375 -8.015625 L 5.75 -8.09375 L 6.609375 -7.890625 C 6.566406 -7.523438 6.457031 -7.21875 6.28125 -6.96875 C 6.101562 -6.726562 5.859375 -6.523438 5.546875 -6.359375 L 5.546875 -6.21875 C 5.773438 -6.039062 5.941406 -5.832031 6.046875 -5.59375 C 6.160156 -5.351562 6.21875 -5.070312 6.21875 -4.75 C 6.21875 -4.300781 6.109375 -3.898438 5.890625 -3.546875 C 5.671875 -3.191406 5.367188 -2.910156 4.984375 -2.703125 C 4.597656 -2.503906 4.148438 -2.40625 3.640625 -2.40625 C 3.578125 -2.40625 3.46875 -2.410156 3.3125 -2.421875 C 3.144531 -2.421875 3.019531 -2.421875 2.9375 -2.421875 C 2.71875 -2.421875 2.539062 -2.363281 2.40625 -2.25 C 2.269531 -2.132812 2.203125 -1.988281 2.203125 -1.8125 C 2.203125 -1.59375 2.273438 -1.425781 2.421875 -1.3125 C 2.566406 -1.207031 2.800781 -1.148438 3.125 -1.140625 L 4.8125 -1.078125 C 5.53125 -1.054688 6.0625 -0.890625 6.40625 -0.578125 C 6.757812 -0.265625 6.9375 0.171875 6.9375 0.734375 C 6.9375 1.160156 6.820312 1.539062 6.59375 1.875 C 6.363281 2.21875 6.003906 2.488281 5.515625 2.6875 C 5.023438 2.894531 4.40625 3 3.65625 3 Z M 3.640625 -3.296875 C 4.140625 -3.296875 4.523438 -3.425781 4.796875 -3.6875 C 5.066406 -3.945312 5.203125 -4.316406 5.203125 -4.796875 C 5.203125 -5.285156 5.066406 -5.660156 4.796875 -5.921875 C 4.523438 -6.191406 4.140625 -6.328125 3.640625 -6.328125 C 3.128906 -6.328125 2.738281 -6.191406 2.46875 -5.921875 C 2.207031 -5.660156 2.078125 -5.285156 2.078125 -4.796875 C 2.078125 -4.316406 2.207031 -3.945312 2.46875 -3.6875 C 2.738281 -3.425781 3.128906 -3.296875 3.640625 -3.296875 Z M 3.65625 2.109375 C 4.175781 2.109375 4.597656 2.050781 4.921875 1.9375 C 5.253906 1.820312 5.492188 1.664062 5.640625 1.46875 C 5.785156 1.28125 5.859375 1.066406 5.859375 0.828125 C 5.859375 0.617188 5.816406 0.453125 5.734375 0.328125 C 5.660156 0.203125 5.535156 0.101562 5.359375 0.03125 C 5.179688 -0.03125 4.941406 -0.0664062 4.640625 -0.078125 L 3.0625 -0.15625 L 2.828125 -0.15625 C 1.941406 -0.144531 1.5 0.195312 1.5 0.875 C 1.5 1.695312 2.21875 2.109375 3.65625 2.109375 Z M 3.65625 2.109375 "/></g></g><g transform="translate(122.9556, 289.976576)"><g><path d="M 2.921875 0.140625 C 2.222656 0.140625 1.675781 -0.0390625 1.28125 -0.40625 C 0.894531 -0.769531 0.703125 -1.289062 0.703125 -1.96875 C 0.703125 -2.394531 0.785156 -2.75 0.953125 -3.03125 C 1.128906 -3.320312 1.398438 -3.554688 1.765625 -3.734375 C 2.128906 -3.921875 2.601562 -4.0625 3.1875 -4.15625 C 3.707031 -4.25 4.097656 -4.347656 4.359375 -4.453125 C 4.628906 -4.554688 4.8125 -4.675781 4.90625 -4.8125 C 5 -4.945312 5.046875 -5.113281 5.046875 -5.3125 C 5.046875 -5.632812 4.929688 -5.878906 4.703125 -6.046875 C 4.484375 -6.222656 4.132812 -6.3125 3.65625 -6.3125 C 3.195312 -6.3125 2.800781 -6.222656 2.46875 -6.046875 C 2.144531 -5.867188 1.84375 -5.601562 1.5625 -5.25 L 1.4375 -5.25 L 0.921875 -5.96875 C 1.222656 -6.351562 1.601562 -6.65625 2.0625 -6.875 C 2.53125 -7.101562 3.0625 -7.21875 3.65625 -7.21875 C 4.488281 -7.21875 5.101562 -7.035156 5.5 -6.671875 C 5.894531 -6.304688 6.09375 -5.800781 6.09375 -5.15625 L 6.09375 -1.390625 C 6.09375 -0.992188 6.257812 -0.796875 6.59375 -0.796875 C 6.707031 -0.796875 6.8125 -0.816406 6.90625 -0.859375 L 7 -0.828125 L 7.125 -0.109375 C 7.050781 -0.0546875 6.945312 -0.0195312 6.8125 0 C 6.6875 0.03125 6.5625 0.046875 6.4375 0.046875 C 6.039062 0.046875 5.742188 -0.0351562 5.546875 -0.203125 C 5.347656 -0.378906 5.222656 -0.632812 5.171875 -0.96875 L 5.03125 -0.96875 C 4.832031 -0.601562 4.5625 -0.328125 4.21875 -0.140625 C 3.875 0.046875 3.441406 0.140625 2.921875 0.140625 Z M 3.15625 -0.703125 C 3.550781 -0.703125 3.890625 -0.789062 4.171875 -0.96875 C 4.460938 -1.15625 4.6875 -1.410156 4.84375 -1.734375 C 5 -2.066406 5.078125 -2.453125 5.078125 -2.890625 L 5.078125 -3.78125 L 4.953125 -3.8125 C 4.796875 -3.695312 4.601562 -3.601562 4.375 -3.53125 C 4.144531 -3.457031 3.828125 -3.390625 3.421875 -3.328125 C 3.015625 -3.273438 2.6875 -3.1875 2.4375 -3.0625 C 2.195312 -2.945312 2.023438 -2.800781 1.921875 -2.625 C 1.816406 -2.445312 1.765625 -2.226562 1.765625 -1.96875 C 1.765625 -1.550781 1.882812 -1.234375 2.125 -1.015625 C 2.375 -0.804688 2.71875 -0.703125 3.15625 -0.703125 Z M 3.15625 -0.703125 "/></g></g><g transform="translate(130.284658, 289.976576)"><g/></g><g transform="translate(133.509187, 289.976576)"><g><path d="M 1.421875 0 L 1.421875 -9.390625 L 2.53125 -9.390625 L 2.53125 -5.28125 L 2.71875 -5.28125 L 6.578125 -9.390625 L 7.78125 -9.390625 L 7.78125 -9.234375 L 3.71875 -4.84375 L 8.109375 -0.15625 L 8.109375 0 L 6.84375 0 L 2.71875 -4.328125 L 2.53125 -4.328125 L 2.53125 0 Z M 1.421875 0 "/></g></g><g transform="translate(141.795327, 289.976576)"><g><path d="M 6.75 -3.296875 L 1.875 -3.296875 C 1.90625 -2.441406 2.113281 -1.8125 2.5 -1.40625 C 2.882812 -1 3.410156 -0.796875 4.078125 -0.796875 C 4.585938 -0.796875 4.992188 -0.882812 5.296875 -1.0625 C 5.609375 -1.25 5.851562 -1.535156 6.03125 -1.921875 L 6.15625 -1.921875 L 6.84375 -1.515625 C 6.632812 -1.003906 6.300781 -0.597656 5.84375 -0.296875 C 5.394531 -0.00390625 4.804688 0.140625 4.078125 0.140625 C 3.390625 0.140625 2.800781 0.00390625 2.3125 -0.265625 C 1.820312 -0.535156 1.441406 -0.941406 1.171875 -1.484375 C 0.910156 -2.035156 0.78125 -2.722656 0.78125 -3.546875 C 0.78125 -4.347656 0.921875 -5.023438 1.203125 -5.578125 C 1.484375 -6.128906 1.863281 -6.539062 2.34375 -6.8125 C 2.832031 -7.082031 3.390625 -7.21875 4.015625 -7.21875 C 4.921875 -7.21875 5.628906 -6.960938 6.140625 -6.453125 C 6.648438 -5.941406 6.90625 -5.179688 6.90625 -4.171875 C 6.90625 -3.773438 6.898438 -3.507812 6.890625 -3.375 Z M 5.875 -4.171875 C 5.863281 -4.929688 5.695312 -5.476562 5.375 -5.8125 C 5.0625 -6.15625 4.609375 -6.328125 4.015625 -6.328125 C 3.390625 -6.328125 2.898438 -6.15625 2.546875 -5.8125 C 2.203125 -5.46875 1.988281 -4.921875 1.90625 -4.171875 Z M 5.875 -4.171875 "/></g></g><g transform="translate(149.349204, 289.976576)"><g><path d="M 3.234375 0.140625 C 2.785156 0.140625 2.367188 0.0820312 1.984375 -0.03125 C 1.609375 -0.15625 1.289062 -0.316406 1.03125 -0.515625 C 0.769531 -0.722656 0.585938 -0.957031 0.484375 -1.21875 L 1.09375 -1.859375 L 1.234375 -1.859375 C 1.460938 -1.515625 1.738281 -1.25 2.0625 -1.0625 C 2.394531 -0.882812 2.785156 -0.796875 3.234375 -0.796875 C 3.753906 -0.796875 4.148438 -0.894531 4.421875 -1.09375 C 4.691406 -1.300781 4.828125 -1.585938 4.828125 -1.953125 C 4.828125 -2.234375 4.742188 -2.460938 4.578125 -2.640625 C 4.421875 -2.828125 4.15625 -2.96875 3.78125 -3.0625 L 2.59375 -3.359375 C 1.945312 -3.503906 1.476562 -3.742188 1.1875 -4.078125 C 0.894531 -4.421875 0.75 -4.835938 0.75 -5.328125 C 0.75 -5.710938 0.847656 -6.046875 1.046875 -6.328125 C 1.242188 -6.617188 1.523438 -6.835938 1.890625 -6.984375 C 2.265625 -7.140625 2.707031 -7.21875 3.21875 -7.21875 C 3.863281 -7.21875 4.375 -7.125 4.75 -6.9375 C 5.125 -6.757812 5.421875 -6.507812 5.640625 -6.1875 L 5.046875 -5.609375 L 4.921875 -5.609375 C 4.691406 -5.867188 4.441406 -6.054688 4.171875 -6.171875 C 3.898438 -6.285156 3.582031 -6.34375 3.21875 -6.34375 C 2.75 -6.34375 2.390625 -6.257812 2.140625 -6.09375 C 1.890625 -5.925781 1.765625 -5.6875 1.765625 -5.375 C 1.765625 -5.082031 1.851562 -4.847656 2.03125 -4.671875 C 2.207031 -4.492188 2.515625 -4.351562 2.953125 -4.25 L 4.125 -3.96875 C 4.75 -3.820312 5.195312 -3.578125 5.46875 -3.234375 C 5.738281 -2.898438 5.875 -2.476562 5.875 -1.96875 C 5.875 -1.550781 5.773438 -1.179688 5.578125 -0.859375 C 5.378906 -0.546875 5.082031 -0.300781 4.6875 -0.125 C 4.289062 0.0507812 3.804688 0.140625 3.234375 0.140625 Z M 3.234375 0.140625 "/></g></g><g transform="translate(155.901036, 289.976576)"><g><path d="M 6.75 -3.296875 L 1.875 -3.296875 C 1.90625 -2.441406 2.113281 -1.8125 2.5 -1.40625 C 2.882812 -1 3.410156 -0.796875 4.078125 -0.796875 C 4.585938 -0.796875 4.992188 -0.882812 5.296875 -1.0625 C 5.609375 -1.25 5.851562 -1.535156 6.03125 -1.921875 L 6.15625 -1.921875 L 6.84375 -1.515625 C 6.632812 -1.003906 6.300781 -0.597656 5.84375 -0.296875 C 5.394531 -0.00390625 4.804688 0.140625 4.078125 0.140625 C 3.390625 0.140625 2.800781 0.00390625 2.3125 -0.265625 C 1.820312 -0.535156 1.441406 -0.941406 1.171875 -1.484375 C 0.910156 -2.035156 0.78125 -2.722656 0.78125 -3.546875 C 0.78125 -4.347656 0.921875 -5.023438 1.203125 -5.578125 C 1.484375 -6.128906 1.863281 -6.539062 2.34375 -6.8125 C 2.832031 -7.082031 3.390625 -7.21875 4.015625 -7.21875 C 4.921875 -7.21875 5.628906 -6.960938 6.140625 -6.453125 C 6.648438 -5.941406 6.90625 -5.179688 6.90625 -4.171875 C 6.90625 -3.773438 6.898438 -3.507812 6.890625 -3.375 Z M 5.875 -4.171875 C 5.863281 -4.929688 5.695312 -5.476562 5.375 -5.8125 C 5.0625 -6.15625 4.609375 -6.328125 4.015625 -6.328125 C 3.390625 -6.328125 2.898438 -6.15625 2.546875 -5.8125 C 2.203125 -5.46875 1.988281 -4.921875 1.90625 -4.171875 Z M 5.875 -4.171875 "/></g></g><g transform="translate(163.454912, 289.976576)"><g><path d="M 1.765625 -8.453125 C 1.535156 -8.453125 1.351562 -8.519531 1.21875 -8.65625 C 1.082031 -8.800781 1.015625 -8.976562 1.015625 -9.1875 C 1.015625 -9.40625 1.082031 -9.582031 1.21875 -9.71875 C 1.351562 -9.863281 1.535156 -9.9375 1.765625 -9.9375 C 1.984375 -9.9375 2.160156 -9.863281 2.296875 -9.71875 C 2.441406 -9.582031 2.515625 -9.40625 2.515625 -9.1875 C 2.515625 -8.976562 2.441406 -8.800781 2.296875 -8.65625 C 2.160156 -8.519531 1.984375 -8.453125 1.765625 -8.453125 Z M 1.234375 0 L 1.234375 -7.078125 L 2.28125 -7.078125 L 2.28125 0 Z M 1.234375 0 "/></g></g><g transform="translate(166.968493, 289.976576)"><g><path d="M 1.234375 0 L 1.234375 -7.078125 L 2.234375 -7.078125 L 2.234375 -6.03125 L 2.359375 -6.015625 C 2.597656 -6.410156 2.890625 -6.707031 3.234375 -6.90625 C 3.578125 -7.113281 3.984375 -7.21875 4.453125 -7.21875 C 5.003906 -7.21875 5.429688 -7.113281 5.734375 -6.90625 C 6.035156 -6.695312 6.269531 -6.363281 6.4375 -5.90625 L 6.5625 -5.90625 C 6.8125 -6.332031 7.113281 -6.65625 7.46875 -6.875 C 7.820312 -7.101562 8.257812 -7.21875 8.78125 -7.21875 C 9.507812 -7.21875 10.050781 -7.019531 10.40625 -6.625 C 10.769531 -6.226562 10.953125 -5.628906 10.953125 -4.828125 L 10.953125 0 L 9.90625 0 L 9.90625 -4.8125 C 9.90625 -5.320312 9.796875 -5.695312 9.578125 -5.9375 C 9.359375 -6.1875 9.007812 -6.3125 8.53125 -6.3125 C 7.96875 -6.3125 7.503906 -6.101562 7.140625 -5.6875 C 6.785156 -5.28125 6.609375 -4.601562 6.609375 -3.65625 L 6.609375 0 L 5.5625 0 L 5.5625 -4.8125 C 5.5625 -5.320312 5.453125 -5.695312 5.234375 -5.9375 C 5.023438 -6.1875 4.679688 -6.3125 4.203125 -6.3125 C 3.640625 -6.3125 3.175781 -6.109375 2.8125 -5.703125 C 2.457031 -5.304688 2.28125 -4.660156 2.28125 -3.765625 L 2.28125 0 Z M 1.234375 0 "/></g></g><g transform="translate(179.044418, 289.976576)"><g><path d="M 4.703125 0.140625 C 4.179688 0.140625 3.722656 0.0390625 3.328125 -0.15625 C 2.941406 -0.363281 2.640625 -0.632812 2.421875 -0.96875 L 2.28125 -0.953125 L 2.28125 0 L 1.234375 0 L 1.234375 -9.9375 L 2.28125 -9.9375 L 2.28125 -6.03125 L 2.421875 -6 C 2.953125 -6.8125 3.734375 -7.21875 4.765625 -7.21875 C 5.347656 -7.21875 5.859375 -7.082031 6.296875 -6.8125 C 6.734375 -6.539062 7.070312 -6.128906 7.3125 -5.578125 C 7.550781 -5.035156 7.671875 -4.359375 7.671875 -3.546875 C 7.671875 -2.734375 7.539062 -2.050781 7.28125 -1.5 C 7.03125 -0.957031 6.679688 -0.546875 6.234375 -0.265625 C 5.796875 0.00390625 5.285156 0.140625 4.703125 0.140625 Z M 4.453125 -0.796875 C 5.867188 -0.796875 6.578125 -1.710938 6.578125 -3.546875 C 6.578125 -4.484375 6.390625 -5.171875 6.015625 -5.609375 C 5.648438 -6.054688 5.128906 -6.28125 4.453125 -6.28125 C 3.796875 -6.28125 3.269531 -6.050781 2.875 -5.59375 C 2.476562 -5.144531 2.28125 -4.460938 2.28125 -3.546875 C 2.28125 -2.617188 2.476562 -1.925781 2.875 -1.46875 C 3.269531 -1.019531 3.796875 -0.796875 4.453125 -0.796875 Z M 4.453125 -0.796875 "/></g></g><g transform="translate(187.497565, 289.976576)"><g><path d="M 2.921875 0.140625 C 2.222656 0.140625 1.675781 -0.0390625 1.28125 -0.40625 C 0.894531 -0.769531 0.703125 -1.289062 0.703125 -1.96875 C 0.703125 -2.394531 0.785156 -2.75 0.953125 -3.03125 C 1.128906 -3.320312 1.398438 -3.554688 1.765625 -3.734375 C 2.128906 -3.921875 2.601562 -4.0625 3.1875 -4.15625 C 3.707031 -4.25 4.097656 -4.347656 4.359375 -4.453125 C 4.628906 -4.554688 4.8125 -4.675781 4.90625 -4.8125 C 5 -4.945312 5.046875 -5.113281 5.046875 -5.3125 C 5.046875 -5.632812 4.929688 -5.878906 4.703125 -6.046875 C 4.484375 -6.222656 4.132812 -6.3125 3.65625 -6.3125 C 3.195312 -6.3125 2.800781 -6.222656 2.46875 -6.046875 C 2.144531 -5.867188 1.84375 -5.601562 1.5625 -5.25 L 1.4375 -5.25 L 0.921875 -5.96875 C 1.222656 -6.351562 1.601562 -6.65625 2.0625 -6.875 C 2.53125 -7.101562 3.0625 -7.21875 3.65625 -7.21875 C 4.488281 -7.21875 5.101562 -7.035156 5.5 -6.671875 C 5.894531 -6.304688 6.09375 -5.800781 6.09375 -5.15625 L 6.09375 -1.390625 C 6.09375 -0.992188 6.257812 -0.796875 6.59375 -0.796875 C 6.707031 -0.796875 6.8125 -0.816406 6.90625 -0.859375 L 7 -0.828125 L 7.125 -0.109375 C 7.050781 -0.0546875 6.945312 -0.0195312 6.8125 0 C 6.6875 0.03125 6.5625 0.046875 6.4375 0.046875 C 6.039062 0.046875 5.742188 -0.0351562 5.546875 -0.203125 C 5.347656 -0.378906 5.222656 -0.632812 5.171875 -0.96875 L 5.03125 -0.96875 C 4.832031 -0.601562 4.5625 -0.328125 4.21875 -0.140625 C 3.875 0.046875 3.441406 0.140625 2.921875 0.140625 Z M 3.15625 -0.703125 C 3.550781 -0.703125 3.890625 -0.789062 4.171875 -0.96875 C 4.460938 -1.15625 4.6875 -1.410156 4.84375 -1.734375 C 5 -2.066406 5.078125 -2.453125 5.078125 -2.890625 L 5.078125 -3.78125 L 4.953125 -3.8125 C 4.796875 -3.695312 4.601562 -3.601562 4.375 -3.53125 C 4.144531 -3.457031 3.828125 -3.390625 3.421875 -3.328125 C 3.015625 -3.273438 2.6875 -3.1875 2.4375 -3.0625 C 2.195312 -2.945312 2.023438 -2.800781 1.921875 -2.625 C 1.816406 -2.445312 1.765625 -2.226562 1.765625 -1.96875 C 1.765625 -1.550781 1.882812 -1.234375 2.125 -1.015625 C 2.375 -0.804688 2.71875 -0.703125 3.15625 -0.703125 Z M 3.15625 -0.703125 "/></g></g><g transform="translate(194.826624, 289.976576)"><g><path d="M 1.234375 0 L 1.234375 -7.078125 L 2.234375 -7.078125 L 2.234375 -5.96875 L 2.359375 -5.9375 C 2.597656 -6.351562 2.898438 -6.671875 3.265625 -6.890625 C 3.628906 -7.109375 4.078125 -7.21875 4.609375 -7.21875 C 5.460938 -7.21875 6.078125 -7 6.453125 -6.5625 C 6.835938 -6.132812 7.03125 -5.46875 7.03125 -4.5625 L 7.03125 0 L 5.984375 0 L 5.984375 -4.53125 C 5.984375 -4.957031 5.925781 -5.300781 5.8125 -5.5625 C 5.707031 -5.820312 5.539062 -6.007812 5.3125 -6.125 C 5.082031 -6.25 4.78125 -6.3125 4.40625 -6.3125 C 3.769531 -6.3125 3.253906 -6.097656 2.859375 -5.671875 C 2.472656 -5.253906 2.28125 -4.578125 2.28125 -3.640625 L 2.28125 0 Z M 1.234375 0 "/></g></g><g transform="translate(202.984297, 289.976576)"><g><path d="M 3.65625 3 C 2.53125 3 1.710938 2.8125 1.203125 2.4375 C 0.691406 2.070312 0.4375 1.582031 0.4375 0.96875 C 0.4375 0.5625 0.554688 0.238281 0.796875 0 C 1.035156 -0.226562 1.382812 -0.394531 1.84375 -0.5 L 1.84375 -0.625 C 1.625 -0.75 1.457031 -0.894531 1.34375 -1.0625 C 1.238281 -1.226562 1.1875 -1.425781 1.1875 -1.65625 C 1.1875 -1.9375 1.269531 -2.160156 1.4375 -2.328125 C 1.613281 -2.503906 1.875 -2.632812 2.21875 -2.71875 L 2.21875 -2.859375 C 1.445312 -3.265625 1.0625 -3.925781 1.0625 -4.84375 C 1.0625 -5.300781 1.164062 -5.707031 1.375 -6.0625 C 1.582031 -6.425781 1.878906 -6.707031 2.265625 -6.90625 C 2.660156 -7.113281 3.117188 -7.21875 3.640625 -7.21875 C 4.234375 -7.21875 4.726562 -7.085938 5.125 -6.828125 C 5.269531 -6.992188 5.378906 -7.171875 5.453125 -7.359375 C 5.535156 -7.554688 5.585938 -7.773438 5.609375 -8.015625 L 5.75 -8.09375 L 6.609375 -7.890625 C 6.566406 -7.523438 6.457031 -7.21875 6.28125 -6.96875 C 6.101562 -6.726562 5.859375 -6.523438 5.546875 -6.359375 L 5.546875 -6.21875 C 5.773438 -6.039062 5.941406 -5.832031 6.046875 -5.59375 C 6.160156 -5.351562 6.21875 -5.070312 6.21875 -4.75 C 6.21875 -4.300781 6.109375 -3.898438 5.890625 -3.546875 C 5.671875 -3.191406 5.367188 -2.910156 4.984375 -2.703125 C 4.597656 -2.503906 4.148438 -2.40625 3.640625 -2.40625 C 3.578125 -2.40625 3.46875 -2.410156 3.3125 -2.421875 C 3.144531 -2.421875 3.019531 -2.421875 2.9375 -2.421875 C 2.71875 -2.421875 2.539062 -2.363281 2.40625 -2.25 C 2.269531 -2.132812 2.203125 -1.988281 2.203125 -1.8125 C 2.203125 -1.59375 2.273438 -1.425781 2.421875 -1.3125 C 2.566406 -1.207031 2.800781 -1.148438 3.125 -1.140625 L 4.8125 -1.078125 C 5.53125 -1.054688 6.0625 -0.890625 6.40625 -0.578125 C 6.757812 -0.265625 6.9375 0.171875 6.9375 0.734375 C 6.9375 1.160156 6.820312 1.539062 6.59375 1.875 C 6.363281 2.21875 6.003906 2.488281 5.515625 2.6875 C 5.023438 2.894531 4.40625 3 3.65625 3 Z M 3.640625 -3.296875 C 4.140625 -3.296875 4.523438 -3.425781 4.796875 -3.6875 C 5.066406 -3.945312 5.203125 -4.316406 5.203125 -4.796875 C 5.203125 -5.285156 5.066406 -5.660156 4.796875 -5.921875 C 4.523438 -6.191406 4.140625 -6.328125 3.640625 -6.328125 C 3.128906 -6.328125 2.738281 -6.191406 2.46875 -5.921875 C 2.207031 -5.660156 2.078125 -5.285156 2.078125 -4.796875 C 2.078125 -4.316406 2.207031 -3.945312 2.46875 -3.6875 C 2.738281 -3.425781 3.128906 -3.296875 3.640625 -3.296875 Z M 3.65625 2.109375 C 4.175781 2.109375 4.597656 2.050781 4.921875 1.9375 C 5.253906 1.820312 5.492188 1.664062 5.640625 1.46875 C 5.785156 1.28125 5.859375 1.066406 5.859375 0.828125 C 5.859375 0.617188 5.816406 0.453125 5.734375 0.328125 C 5.660156 0.203125 5.535156 0.101562 5.359375 0.03125 C 5.179688 -0.03125 4.941406 -0.0664062 4.640625 -0.078125 L 3.0625 -0.15625 L 2.828125 -0.15625 C 1.941406 -0.144531 1.5 0.195312 1.5 0.875 C 1.5 1.695312 2.21875 2.109375 3.65625 2.109375 Z M 3.65625 2.109375 "/></g></g><g transform="translate(210.242699, 289.976576)"><g><path d="M 2.921875 0.140625 C 2.222656 0.140625 1.675781 -0.0390625 1.28125 -0.40625 C 0.894531 -0.769531 0.703125 -1.289062 0.703125 -1.96875 C 0.703125 -2.394531 0.785156 -2.75 0.953125 -3.03125 C 1.128906 -3.320312 1.398438 -3.554688 1.765625 -3.734375 C 2.128906 -3.921875 2.601562 -4.0625 3.1875 -4.15625 C 3.707031 -4.25 4.097656 -4.347656 4.359375 -4.453125 C 4.628906 -4.554688 4.8125 -4.675781 4.90625 -4.8125 C 5 -4.945312 5.046875 -5.113281 5.046875 -5.3125 C 5.046875 -5.632812 4.929688 -5.878906 4.703125 -6.046875 C 4.484375 -6.222656 4.132812 -6.3125 3.65625 -6.3125 C 3.195312 -6.3125 2.800781 -6.222656 2.46875 -6.046875 C 2.144531 -5.867188 1.84375 -5.601562 1.5625 -5.25 L 1.4375 -5.25 L 0.921875 -5.96875 C 1.222656 -6.351562 1.601562 -6.65625 2.0625 -6.875 C 2.53125 -7.101562 3.0625 -7.21875 3.65625 -7.21875 C 4.488281 -7.21875 5.101562 -7.035156 5.5 -6.671875 C 5.894531 -6.304688 6.09375 -5.800781 6.09375 -5.15625 L 6.09375 -1.390625 C 6.09375 -0.992188 6.257812 -0.796875 6.59375 -0.796875 C 6.707031 -0.796875 6.8125 -0.816406 6.90625 -0.859375 L 7 -0.828125 L 7.125 -0.109375 C 7.050781 -0.0546875 6.945312 -0.0195312 6.8125 0 C 6.6875 0.03125 6.5625 0.046875 6.4375 0.046875 C 6.039062 0.046875 5.742188 -0.0351562 5.546875 -0.203125 C 5.347656 -0.378906 5.222656 -0.632812 5.171875 -0.96875 L 5.03125 -0.96875 C 4.832031 -0.601562 4.5625 -0.328125 4.21875 -0.140625 C 3.875 0.046875 3.441406 0.140625 2.921875 0.140625 Z M 3.15625 -0.703125 C 3.550781 -0.703125 3.890625 -0.789062 4.171875 -0.96875 C 4.460938 -1.15625 4.6875 -1.410156 4.84375 -1.734375 C 5 -2.066406 5.078125 -2.453125 5.078125 -2.890625 L 5.078125 -3.78125 L 4.953125 -3.8125 C 4.796875 -3.695312 4.601562 -3.601562 4.375 -3.53125 C 4.144531 -3.457031 3.828125 -3.390625 3.421875 -3.328125 C 3.015625 -3.273438 2.6875 -3.1875 2.4375 -3.0625 C 2.195312 -2.945312 2.023438 -2.800781 1.921875 -2.625 C 1.816406 -2.445312 1.765625 -2.226562 1.765625 -1.96875 C 1.765625 -1.550781 1.882812 -1.234375 2.125 -1.015625 C 2.375 -0.804688 2.71875 -0.703125 3.15625 -0.703125 Z M 3.15625 -0.703125 "/></g></g><g transform="translate(217.571757, 289.976576)"><g><path d="M 1.234375 0 L 1.234375 -7.078125 L 2.234375 -7.078125 L 2.234375 -5.96875 L 2.359375 -5.9375 C 2.597656 -6.351562 2.898438 -6.671875 3.265625 -6.890625 C 3.628906 -7.109375 4.078125 -7.21875 4.609375 -7.21875 C 5.460938 -7.21875 6.078125 -7 6.453125 -6.5625 C 6.835938 -6.132812 7.03125 -5.46875 7.03125 -4.5625 L 7.03125 0 L 5.984375 0 L 5.984375 -4.53125 C 5.984375 -4.957031 5.925781 -5.300781 5.8125 -5.5625 C 5.707031 -5.820312 5.539062 -6.007812 5.3125 -6.125 C 5.082031 -6.25 4.78125 -6.3125 4.40625 -6.3125 C 3.769531 -6.3125 3.253906 -6.097656 2.859375 -5.671875 C 2.472656 -5.253906 2.28125 -4.578125 2.28125 -3.640625 L 2.28125 0 Z M 1.234375 0 "/></g></g><g transform="translate(225.72943, 289.976576)"><g/></g><g transform="translate(228.953959, 289.976576)"><g><path d="M 7.328125 -9.390625 L 7.328125 -8.453125 L 4.390625 -8.453125 L 4.390625 0 L 3.296875 0 L 3.296875 -8.453125 L 0.34375 -8.453125 L 0.34375 -9.390625 Z M 7.328125 -9.390625 "/></g></g><g transform="translate(236.623456, 289.976576)"><g><path d="M 3.5 0.140625 C 2.695312 0.140625 2.097656 -0.0703125 1.703125 -0.5 C 1.316406 -0.925781 1.125 -1.546875 1.125 -2.359375 L 1.125 -7.078125 L 2.171875 -7.078125 L 2.171875 -2.390625 C 2.171875 -1.316406 2.675781 -0.78125 3.6875 -0.78125 C 4.332031 -0.78125 4.835938 -0.988281 5.203125 -1.40625 C 5.578125 -1.820312 5.765625 -2.503906 5.765625 -3.453125 L 5.765625 -7.078125 L 6.8125 -7.078125 L 6.8125 0 L 5.828125 0 L 5.828125 -1.109375 L 5.6875 -1.140625 C 5.445312 -0.710938 5.15625 -0.390625 4.8125 -0.171875 C 4.46875 0.0351562 4.03125 0.140625 3.5 0.140625 Z M 3.5 0.140625 "/></g></g><g transform="translate(244.671932, 289.976576)"><g><path d="M 4.703125 0.140625 C 4.179688 0.140625 3.722656 0.0390625 3.328125 -0.15625 C 2.941406 -0.363281 2.640625 -0.632812 2.421875 -0.96875 L 2.28125 -0.953125 L 2.28125 0 L 1.234375 0 L 1.234375 -9.9375 L 2.28125 -9.9375 L 2.28125 -6.03125 L 2.421875 -6 C 2.953125 -6.8125 3.734375 -7.21875 4.765625 -7.21875 C 5.347656 -7.21875 5.859375 -7.082031 6.296875 -6.8125 C 6.734375 -6.539062 7.070312 -6.128906 7.3125 -5.578125 C 7.550781 -5.035156 7.671875 -4.359375 7.671875 -3.546875 C 7.671875 -2.734375 7.539062 -2.050781 7.28125 -1.5 C 7.03125 -0.957031 6.679688 -0.546875 6.234375 -0.265625 C 5.796875 0.00390625 5.285156 0.140625 4.703125 0.140625 Z M 4.453125 -0.796875 C 5.867188 -0.796875 6.578125 -1.710938 6.578125 -3.546875 C 6.578125 -4.484375 6.390625 -5.171875 6.015625 -5.609375 C 5.648438 -6.054688 5.128906 -6.28125 4.453125 -6.28125 C 3.796875 -6.28125 3.269531 -6.050781 2.875 -5.59375 C 2.476562 -5.144531 2.28125 -4.460938 2.28125 -3.546875 C 2.28125 -2.617188 2.476562 -1.925781 2.875 -1.46875 C 3.269531 -1.019531 3.796875 -0.796875 4.453125 -0.796875 Z M 4.453125 -0.796875 "/></g></g><g transform="translate(253.12508, 289.976576)"><g><path d="M 3.5 0.140625 C 2.695312 0.140625 2.097656 -0.0703125 1.703125 -0.5 C 1.316406 -0.925781 1.125 -1.546875 1.125 -2.359375 L 1.125 -7.078125 L 2.171875 -7.078125 L 2.171875 -2.390625 C 2.171875 -1.316406 2.675781 -0.78125 3.6875 -0.78125 C 4.332031 -0.78125 4.835938 -0.988281 5.203125 -1.40625 C 5.578125 -1.820312 5.765625 -2.503906 5.765625 -3.453125 L 5.765625 -7.078125 L 6.8125 -7.078125 L 6.8125 0 L 5.828125 0 L 5.828125 -1.109375 L 5.6875 -1.140625 C 5.445312 -0.710938 5.15625 -0.390625 4.8125 -0.171875 C 4.46875 0.0351562 4.03125 0.140625 3.5 0.140625 Z M 3.5 0.140625 "/></g></g><g transform="translate(261.173555, 289.976576)"><g><path d="M 1.234375 0 L 1.234375 -9.9375 L 2.28125 -9.9375 L 2.28125 -6.078125 L 2.421875 -6.046875 C 2.921875 -6.828125 3.648438 -7.21875 4.609375 -7.21875 C 5.460938 -7.21875 6.078125 -7 6.453125 -6.5625 C 6.835938 -6.132812 7.03125 -5.46875 7.03125 -4.5625 L 7.03125 0 L 5.984375 0 L 5.984375 -4.53125 C 5.984375 -4.957031 5.925781 -5.300781 5.8125 -5.5625 C 5.707031 -5.820312 5.539062 -6.007812 5.3125 -6.125 C 5.082031 -6.25 4.78125 -6.3125 4.40625 -6.3125 C 3.769531 -6.3125 3.253906 -6.101562 2.859375 -5.6875 C 2.472656 -5.269531 2.28125 -4.585938 2.28125 -3.640625 L 2.28125 0 Z M 1.234375 0 "/></g></g><g transform="translate(269.331228, 289.976576)"><g><path d="M 1.234375 0 L 1.234375 -7.078125 L 2.234375 -7.078125 L 2.234375 -6.03125 L 2.359375 -6.015625 C 2.597656 -6.410156 2.890625 -6.707031 3.234375 -6.90625 C 3.578125 -7.113281 3.984375 -7.21875 4.453125 -7.21875 C 5.003906 -7.21875 5.429688 -7.113281 5.734375 -6.90625 C 6.035156 -6.695312 6.269531 -6.363281 6.4375 -5.90625 L 6.5625 -5.90625 C 6.8125 -6.332031 7.113281 -6.65625 7.46875 -6.875 C 7.820312 -7.101562 8.257812 -7.21875 8.78125 -7.21875 C 9.507812 -7.21875 10.050781 -7.019531 10.40625 -6.625 C 10.769531 -6.226562 10.953125 -5.628906 10.953125 -4.828125 L 10.953125 0 L 9.90625 0 L 9.90625 -4.8125 C 9.90625 -5.320312 9.796875 -5.695312 9.578125 -5.9375 C 9.359375 -6.1875 9.007812 -6.3125 8.53125 -6.3125 C 7.96875 -6.3125 7.503906 -6.101562 7.140625 -5.6875 C 6.785156 -5.28125 6.609375 -4.601562 6.609375 -3.65625 L 6.609375 0 L 5.5625 0 L 5.5625 -4.8125 C 5.5625 -5.320312 5.453125 -5.695312 5.234375 -5.9375 C 5.023438 -6.1875 4.679688 -6.3125 4.203125 -6.3125 C 3.640625 -6.3125 3.175781 -6.109375 2.8125 -5.703125 C 2.457031 -5.304688 2.28125 -4.660156 2.28125 -3.765625 L 2.28125 0 Z M 1.234375 0 "/></g></g><g transform="translate(281.407153, 289.976576)"><g><path d="M 3.5 0.140625 C 2.695312 0.140625 2.097656 -0.0703125 1.703125 -0.5 C 1.316406 -0.925781 1.125 -1.546875 1.125 -2.359375 L 1.125 -7.078125 L 2.171875 -7.078125 L 2.171875 -2.390625 C 2.171875 -1.316406 2.675781 -0.78125 3.6875 -0.78125 C 4.332031 -0.78125 4.835938 -0.988281 5.203125 -1.40625 C 5.578125 -1.820312 5.765625 -2.503906 5.765625 -3.453125 L 5.765625 -7.078125 L 6.8125 -7.078125 L 6.8125 0 L 5.828125 0 L 5.828125 -1.109375 L 5.6875 -1.140625 C 5.445312 -0.710938 5.15625 -0.390625 4.8125 -0.171875 C 4.46875 0.0351562 4.03125 0.140625 3.5 0.140625 Z M 3.5 0.140625 "/></g></g><g transform="translate(289.455629, 289.976576)"><g><path d="M 2.5625 -3.109375 L 1.484375 -3.109375 L 1.484375 -9.390625 L 2.5625 -9.390625 Z M 2.03125 0.0625 C 1.78125 0.0625 1.582031 -0.00390625 1.4375 -0.140625 C 1.300781 -0.273438 1.234375 -0.457031 1.234375 -0.6875 C 1.234375 -0.90625 1.300781 -1.085938 1.4375 -1.234375 C 1.582031 -1.378906 1.78125 -1.453125 2.03125 -1.453125 C 2.269531 -1.453125 2.457031 -1.382812 2.59375 -1.25 C 2.738281 -1.113281 2.8125 -0.929688 2.8125 -0.703125 C 2.8125 -0.472656 2.738281 -0.285156 2.59375 -0.140625 C 2.457031 -0.00390625 2.269531 0.0625 2.03125 0.0625 Z M 2.03125 0.0625 "/></g></g></g></svg>