<svg xmlns="http://www.w3.org/2000/svg" xmlns:xlink="http://www.w3.org/1999/xlink" width="500" zoomAndPan="magnify" viewBox="0 0 375 374.999991" height="500" preserveAspectRatio="xMidYMid meet" version="1.0"><defs><clipPath id="19dc7c13fd"><path d="M 128 211 L 186 211 L 186 346 L 128 346 Z M 128 211 " clip-rule="nonzero"/></clipPath><clipPath id="4d2551652f"><path d="M 141.773438 209.59375 L 187.550781 214.800781 L 172.46875 347.417969 L 126.695312 342.214844 Z M 141.773438 209.59375 " clip-rule="nonzero"/></clipPath><clipPath id="187c3abced"><path d="M 158.910156 211.542969 L 169.878906 212.789062 C 179.347656 213.867188 186.148438 222.414062 185.070312 231.878906 L 173.929688 329.859375 C 172.855469 339.324219 164.308594 346.125 154.84375 345.050781 L 143.875 343.804688 C 134.40625 342.726562 127.605469 334.179688 128.683594 324.714844 L 139.824219 226.734375 C 140.898438 217.269531 149.445312 210.46875 158.910156 211.542969 " clip-rule="nonzero"/></clipPath><clipPath id="5d05ea7f54"><path d="M 188 214 L 251 214 L 251 348 L 188 348 Z M 188 214 " clip-rule="nonzero"/></clipPath><clipPath id="e26fb842dd"><path d="M 185.707031 219.121094 L 233.246094 211.765625 L 253.445312 342.332031 L 205.90625 349.6875 Z M 185.707031 219.121094 " clip-rule="nonzero"/></clipPath><clipPath id="045d26fee0"><path d="M 202.753906 216.484375 L 215.839844 214.460938 C 225.257812 213.003906 234.070312 219.457031 235.527344 228.871094 L 250.4375 325.253906 C 251.894531 334.667969 245.441406 343.480469 236.027344 344.9375 L 222.941406 346.960938 C 213.523438 348.417969 204.710938 341.964844 203.257812 332.550781 L 188.34375 236.167969 C 186.890625 226.753906 193.339844 217.941406 202.753906 216.484375 " clip-rule="nonzero"/></clipPath><clipPath id="bfea2748c7"><path d="M 220 83 L 305 83 L 305 219 L 220 219 Z M 220 83 " clip-rule="nonzero"/></clipPath><clipPath id="c10f0fb8e3"><path d="M 261.753906 78.140625 L 309.84375 206.273438 L 263.539062 223.652344 L 215.445312 95.519531 Z M 261.753906 78.140625 " clip-rule="nonzero"/></clipPath><clipPath id="ecefd5c9ce"><path d="M 267.8125 94.292969 L 303.773438 190.097656 C 307.121094 199.019531 302.601562 208.960938 293.683594 212.308594 L 279.710938 217.554688 C 270.792969 220.902344 260.847656 216.382812 257.5 207.464844 L 221.542969 111.660156 C 218.195312 102.738281 222.710938 92.792969 231.632812 89.445312 L 245.601562 84.203125 C 254.523438 80.855469 264.464844 85.371094 267.8125 94.292969 " clip-rule="nonzero"/></clipPath><clipPath id="6208028432"><path d="M 70 83 L 155 83 L 155 219 L 70 219 Z M 70 83 " clip-rule="nonzero"/></clipPath><clipPath id="993ceef16d"><path d="M 159.566406 95.53125 L 111.410156 223.640625 L 65.113281 206.238281 L 113.269531 78.128906 Z M 159.566406 95.53125 " clip-rule="nonzero"/></clipPath><clipPath id="be81260475"><path d="M 153.496094 111.675781 L 117.492188 207.464844 C 114.140625 216.382812 104.191406 220.894531 95.273438 217.542969 L 81.304688 212.292969 C 72.386719 208.941406 67.875 198.996094 71.226562 190.078125 L 107.230469 94.289062 C 110.585938 85.371094 120.53125 80.859375 129.449219 84.210938 L 143.417969 89.460938 C 152.335938 92.8125 156.847656 102.757812 153.496094 111.675781 " clip-rule="nonzero"/></clipPath><clipPath id="32bd153337"><path d="M 220 83 L 280 83 L 280 151 L 220 151 Z M 220 83 " clip-rule="nonzero"/></clipPath><clipPath id="94b5c99a07"><path d="M 261.75 78.144531 L 284.367188 138.40625 L 238.0625 155.785156 L 215.445312 95.523438 Z M 261.75 78.144531 " clip-rule="nonzero"/></clipPath><clipPath id="15d6d7088c"><path d="M 267.8125 94.292969 L 278.082031 121.65625 C 281.429688 130.574219 276.910156 140.519531 267.992188 143.867188 L 254.019531 149.109375 C 245.101562 152.457031 235.15625 147.941406 231.808594 139.019531 L 221.539062 111.660156 C 218.191406 102.742188 222.710938 92.796875 231.628906 89.449219 L 245.601562 84.207031 C 254.519531 80.859375 264.464844 85.375 267.8125 94.292969 " clip-rule="nonzero"/></clipPath><clipPath id="7e162087e0"><path d="M 97 82 L 155 82 L 155 146 L 97 146 Z M 97 82 " clip-rule="nonzero"/></clipPath><clipPath id="31b70db8ec"><path d="M 159.5625 95.355469 L 138.585938 151.164062 L 92.289062 133.761719 L 113.265625 77.953125 Z M 159.5625 95.355469 " clip-rule="nonzero"/></clipPath><clipPath id="3ad55c5864"><path d="M 153.492188 111.503906 L 144.761719 134.730469 C 141.410156 143.648438 131.460938 148.160156 122.546875 144.808594 L 108.574219 139.558594 C 99.660156 136.207031 95.144531 126.261719 98.5 117.34375 L 107.230469 94.113281 C 110.582031 85.195312 120.527344 80.683594 129.445312 84.035156 L 143.414062 89.285156 C 152.332031 92.636719 156.84375 102.585938 153.492188 111.503906 " clip-rule="nonzero"/></clipPath><clipPath id="ac663a85fb"><path d="M 184 214 L 244 214 L 244 273 L 184 273 Z M 184 214 " clip-rule="nonzero"/></clipPath><clipPath id="4abbd3cb91"><path d="M 181.703125 220.519531 L 237.945312 211.820312 L 246.441406 266.722656 L 190.195312 275.425781 Z M 181.703125 220.519531 " clip-rule="nonzero"/></clipPath><clipPath id="c8062d4da0"><path d="M 198.75 217.882812 L 220.871094 214.460938 C 230.285156 213.003906 239.097656 219.457031 240.554688 228.871094 L 243.679688 249.074219 C 245.136719 258.492188 238.683594 267.304688 229.269531 268.761719 L 207.148438 272.183594 C 197.734375 273.640625 188.921875 267.1875 187.464844 257.773438 L 184.339844 237.566406 C 182.882812 228.152344 189.335938 219.339844 198.75 217.882812 " clip-rule="nonzero"/></clipPath><clipPath id="31997cd703"><path d="M 134 211 L 194 211 L 194 271 L 134 271 Z M 134 211 " clip-rule="nonzero"/></clipPath><clipPath id="00135dd088"><path d="M 139.019531 209.59375 L 195.566406 216.023438 L 189.136719 272.574219 L 132.589844 266.144531 Z M 139.019531 209.59375 " clip-rule="nonzero"/></clipPath><clipPath id="be0b34eb8d"><path d="M 156.160156 211.542969 L 178.398438 214.074219 C 187.867188 215.148438 194.667969 223.695312 193.589844 233.160156 L 191.085938 255.175781 C 190.011719 264.644531 181.464844 271.445312 172 270.367188 L 149.757812 267.839844 C 140.292969 266.761719 133.492188 258.21875 134.566406 248.75 L 137.070312 226.734375 C 138.148438 217.269531 146.695312 210.46875 156.160156 211.542969 " clip-rule="nonzero"/></clipPath><clipPath id="407b4e245d"><path d="M 114 295 L 177 295 L 177 358 L 114 358 Z M 114 295 " clip-rule="nonzero"/></clipPath><clipPath id="4ef73142ac"><path d="M 110.902344 299.203125 L 172.886719 292.15625 L 179.9375 354.144531 L 117.949219 361.191406 Z M 110.902344 299.203125 " clip-rule="nonzero"/></clipPath><clipPath id="102ded8ec0"><path d="M 141.894531 295.679688 C 124.777344 297.625 112.476562 313.082031 114.425781 330.199219 C 116.371094 347.316406 131.824219 359.613281 148.941406 357.667969 C 166.058594 355.722656 178.359375 340.269531 176.414062 323.152344 C 174.464844 306.03125 159.011719 293.734375 141.894531 295.679688 " clip-rule="nonzero"/></clipPath><clipPath id="aacb2e0a95"><path d="M 198 295 L 261 295 L 261 358 L 198 358 Z M 198 295 " clip-rule="nonzero"/></clipPath><clipPath id="3ec0573670"><path d="M 202.15625 291.792969 L 264.097656 299.253906 L 256.636719 361.195312 L 194.695312 353.734375 Z M 202.15625 291.792969 " clip-rule="nonzero"/></clipPath><clipPath id="b6c2161a2c"><path d="M 233.128906 295.523438 C 216.023438 293.464844 200.488281 305.660156 198.425781 322.761719 C 196.367188 339.867188 208.5625 355.402344 225.667969 357.464844 C 242.769531 359.523438 258.304688 347.328125 260.367188 330.222656 C 262.425781 313.121094 250.230469 297.582031 233.128906 295.523438 " clip-rule="nonzero"/></clipPath><clipPath id="808882a565"><path d="M 137.636719 86.914062 L 240 86.914062 L 240 244 L 137.636719 244 Z M 137.636719 86.914062 " clip-rule="nonzero"/></clipPath><clipPath id="4778d98353"><path d="M 239.976562 86.914062 L 239.976562 228.214844 L 188.804688 244.035156 L 137.636719 228.214844 L 137.636719 86.914062 L 239.976562 86.914062 " clip-rule="nonzero"/></clipPath><clipPath id="19f10c7f62"><path d="M 153.136719 13.808594 L 224.472656 13.808594 L 224.472656 100.75 L 153.136719 100.75 Z M 153.136719 13.808594 " clip-rule="nonzero"/></clipPath><clipPath id="7fd067a30a"><path d="M 188.804688 13.808594 C 169.105469 13.808594 153.136719 33.128906 153.136719 56.960938 C 153.136719 80.792969 169.105469 100.113281 188.804688 100.113281 C 208.503906 100.113281 224.472656 80.792969 224.472656 56.960938 C 224.472656 33.128906 208.503906 13.808594 188.804688 13.808594 " clip-rule="nonzero"/></clipPath></defs><rect x="-37.5" width="450" fill="#ffffff" y="-37.499999" height="449.999989" fill-opacity="1"/><rect x="-37.5" width="450" fill="#ffffff" y="-37.499999" height="449.999989" fill-opacity="1"/><g clip-path="url(#19dc7c13fd)"><g clip-path="url(#4d2551652f)"><g clip-path="url(#187c3abced)"><path fill="#f68bd5" d="M 141.773438 209.59375 L 186.875 214.722656 L 171.875 346.667969 L 126.769531 341.539062 Z M 141.773438 209.59375 " fill-opacity="1" fill-rule="nonzero"/></g></g></g><g clip-path="url(#5d05ea7f54)"><g clip-path="url(#e26fb842dd)"><g clip-path="url(#045d26fee0)"><path fill="#f68bd5" d="M 185.707031 219.121094 L 232.578125 211.871094 L 252.777344 342.4375 L 205.90625 349.6875 Z M 185.707031 219.121094 " fill-opacity="1" fill-rule="nonzero"/></g></g></g><g clip-path="url(#bfea2748c7)"><g clip-path="url(#c10f0fb8e3)"><g clip-path="url(#ecefd5c9ce)"><path fill="#f68bd5" d="M 261.753906 78.140625 L 309.84375 206.273438 L 263.539062 223.652344 L 215.445312 95.519531 Z M 261.753906 78.140625 " fill-opacity="1" fill-rule="nonzero"/></g></g></g><g clip-path="url(#6208028432)"><g clip-path="url(#993ceef16d)"><g clip-path="url(#be81260475)"><path fill="#f68bd5" d="M 159.566406 95.53125 L 111.410156 223.640625 L 65.113281 206.238281 L 113.269531 78.128906 Z M 159.566406 95.53125 " fill-opacity="1" fill-rule="nonzero"/></g></g></g><g clip-path="url(#32bd153337)"><g clip-path="url(#94b5c99a07)"><g clip-path="url(#15d6d7088c)"><path fill="#ca57eb" d="M 261.75 78.144531 L 284.128906 137.769531 L 237.824219 155.148438 L 215.445312 95.523438 Z M 261.75 78.144531 " fill-opacity="1" fill-rule="nonzero"/></g></g></g><g clip-path="url(#7e162087e0)"><g clip-path="url(#31b70db8ec)"><g clip-path="url(#3ad55c5864)"><path fill="#ca57eb" d="M 159.5625 95.355469 L 138.585938 151.164062 L 92.289062 133.761719 L 113.265625 77.953125 Z M 159.5625 95.355469 " fill-opacity="1" fill-rule="nonzero"/></g></g></g><g clip-path="url(#ac663a85fb)"><g clip-path="url(#4abbd3cb91)"><g clip-path="url(#c8062d4da0)"><path fill="#ca57eb" d="M 181.703125 220.519531 L 237.945312 211.820312 L 246.335938 266.054688 L 190.09375 274.753906 Z M 181.703125 220.519531 " fill-opacity="1" fill-rule="nonzero"/></g></g></g><g clip-path="url(#31997cd703)"><g clip-path="url(#00135dd088)"><g clip-path="url(#be0b34eb8d)"><path fill="#ca57eb" d="M 139.019531 209.59375 L 195.566406 216.023438 L 189.136719 272.574219 L 132.589844 266.144531 Z M 139.019531 209.59375 " fill-opacity="1" fill-rule="nonzero"/></g></g></g><g clip-path="url(#407b4e245d)"><g clip-path="url(#4ef73142ac)"><g clip-path="url(#102ded8ec0)"><path fill="#a6588e" d="M 110.902344 299.203125 L 172.886719 292.15625 L 179.9375 354.144531 L 117.949219 361.191406 Z M 110.902344 299.203125 " fill-opacity="1" fill-rule="nonzero"/></g></g></g><g clip-path="url(#aacb2e0a95)"><g clip-path="url(#3ec0573670)"><g clip-path="url(#b6c2161a2c)"><path fill="#a6588e" d="M 202.15625 291.792969 L 264.097656 299.253906 L 256.636719 361.195312 L 194.695312 353.734375 Z M 202.15625 291.792969 " fill-opacity="1" fill-rule="nonzero"/></g></g></g><g clip-path="url(#808882a565)"><g clip-path="url(#4778d98353)"><path fill="#ca57eb" d="M 137.636719 86.914062 L 240.175781 86.914062 L 240.175781 243.945312 L 137.636719 243.945312 Z M 137.636719 86.914062 " fill-opacity="1" fill-rule="nonzero"/></g></g><g clip-path="url(#19f10c7f62)"><g clip-path="url(#7fd067a30a)"><path fill="#f68bd5" d="M 153.136719 13.808594 L 224.472656 13.808594 L 224.472656 100.003906 L 153.136719 100.003906 Z M 153.136719 13.808594 " fill-opacity="1" fill-rule="nonzero"/></g></g></svg>