<svg xmlns="http://www.w3.org/2000/svg" xmlns:xlink="http://www.w3.org/1999/xlink" width="500" zoomAndPan="magnify" viewBox="0 0 375 374.999991" height="500" preserveAspectRatio="xMidYMid meet" version="1.0"><defs><clipPath id="154d9339dc"><path d="M 75.234375 82.730469 L 291 82.730469 L 291 256.179688 L 75.234375 256.179688 Z M 75.234375 82.730469 " clip-rule="nonzero"/></clipPath><clipPath id="0dced1fac8"><path d="M 183.015625 82.730469 C 123.488281 82.730469 75.234375 121.558594 75.234375 169.457031 C 75.234375 217.351562 123.488281 256.179688 183.015625 256.179688 C 242.542969 256.179688 290.796875 217.351562 290.796875 169.457031 C 290.796875 121.558594 242.542969 82.730469 183.015625 82.730469 " clip-rule="nonzero"/></clipPath><clipPath id="670716757c"><path d="M 152.398438 15.167969 L 223.734375 15.167969 L 223.734375 102 L 152.398438 102 Z M 152.398438 15.167969 " clip-rule="nonzero"/></clipPath><clipPath id="c3daf5e84b"><path d="M 188.066406 15.167969 C 168.367188 15.167969 152.398438 34.488281 152.398438 58.320312 C 152.398438 82.152344 168.367188 101.472656 188.066406 101.472656 C 207.765625 101.472656 223.734375 82.152344 223.734375 58.320312 C 223.734375 34.488281 207.765625 15.167969 188.066406 15.167969 " clip-rule="nonzero"/></clipPath><clipPath id="0df939caba"><path d="M 104 216 L 184 216 L 184 353 L 104 353 Z M 104 216 " clip-rule="nonzero"/></clipPath><clipPath id="57d7dd95fa"><path d="M 131.039062 213.316406 L 186.5 226.09375 L 156.535156 356.160156 L 101.074219 343.382812 Z M 131.039062 213.316406 " clip-rule="nonzero"/></clipPath><clipPath id="bfe04bd9c7"><path d="M 147.847656 217.1875 L 169.660156 222.214844 C 178.945312 224.351562 184.738281 233.613281 182.597656 242.894531 L 160.460938 338.988281 C 158.320312 348.273438 149.0625 354.066406 139.777344 351.925781 L 117.964844 346.902344 C 108.683594 344.761719 102.890625 335.503906 105.027344 326.21875 L 127.167969 230.125 C 129.304688 220.84375 138.566406 215.050781 147.847656 217.1875 " clip-rule="nonzero"/></clipPath><clipPath id="f24e848452"><path d="M 202 217 L 286 217 L 286 352 L 202 352 Z M 202 217 " clip-rule="nonzero"/></clipPath><clipPath id="2fbc2a1042"><path d="M 198.867188 228.671875 L 253.667969 213.308594 L 289.335938 340.519531 L 234.535156 355.882812 Z M 198.867188 228.671875 " clip-rule="nonzero"/></clipPath><clipPath id="3308f89efd"><path d="M 215.480469 224.015625 L 237.03125 217.972656 C 246.203125 215.402344 255.726562 220.753906 258.296875 229.925781 L 284.628906 323.832031 C 287.199219 333.007812 281.847656 342.527344 272.675781 345.101562 L 251.121094 351.140625 C 241.949219 353.714844 232.429688 348.363281 229.855469 339.191406 L 203.527344 245.28125 C 200.953125 236.109375 206.304688 226.585938 215.480469 224.015625 " clip-rule="nonzero"/></clipPath><clipPath id="7561fa20b4"><path d="M 210 95 L 338 95 L 338 201 L 210 201 Z M 210 95 " clip-rule="nonzero"/></clipPath><clipPath id="53e639bf73"><path d="M 231.898438 88.792969 L 344.476562 166.617188 L 316.355469 207.300781 L 203.773438 129.480469 Z M 231.898438 88.792969 " clip-rule="nonzero"/></clipPath><clipPath id="943f88c41b"><path d="M 246.085938 98.601562 L 330.265625 156.792969 C 338.101562 162.207031 340.0625 172.953125 334.644531 180.789062 L 326.160156 193.066406 C 320.742188 200.902344 310 202.863281 302.160156 197.445312 L 217.984375 139.257812 C 210.148438 133.839844 208.1875 123.097656 213.601562 115.257812 L 222.089844 102.984375 C 227.507812 95.148438 238.25 93.183594 246.085938 98.601562 " clip-rule="nonzero"/></clipPath><clipPath id="eda7854beb"><path d="M 37 95 L 156 95 L 156 214 L 37 214 Z M 37 95 " clip-rule="nonzero"/></clipPath><clipPath id="0cd2f43302"><path d="M 162.242188 123.738281 L 65.464844 220.511719 L 30.492188 185.539062 L 127.269531 88.765625 Z M 162.242188 123.738281 " clip-rule="nonzero"/></clipPath><clipPath id="4333c3ee0c"><path d="M 150.042969 135.933594 L 77.683594 208.292969 C 70.945312 215.03125 60.023438 215.03125 53.289062 208.292969 L 42.734375 197.742188 C 36 191.003906 36 180.082031 42.734375 173.347656 L 115.097656 100.988281 C 121.832031 94.25 132.753906 94.25 139.492188 100.988281 L 150.042969 111.539062 C 156.78125 118.277344 156.78125 129.199219 150.042969 135.933594 " clip-rule="nonzero"/></clipPath><clipPath id="9c0dbc7704"><path d="M 210 95 L 278 95 L 278 159 L 210 159 Z M 210 95 " clip-rule="nonzero"/></clipPath><clipPath id="ac2a95ac9d"><path d="M 231.898438 88.796875 L 284.84375 125.394531 L 256.71875 166.082031 L 203.773438 129.480469 Z M 231.898438 88.796875 " clip-rule="nonzero"/></clipPath><clipPath id="b16f8c9d52"><path d="M 246.085938 98.605469 L 270.125 115.222656 C 277.964844 120.640625 279.925781 131.382812 274.507812 139.21875 L 266.019531 151.496094 C 260.605469 159.332031 249.859375 161.292969 242.023438 155.875 L 217.984375 139.257812 C 210.148438 133.84375 208.183594 123.097656 213.601562 115.261719 L 222.089844 102.984375 C 227.503906 95.148438 238.25 93.1875 246.085938 98.605469 " clip-rule="nonzero"/></clipPath><clipPath id="9fff4f0c3a"><path d="M 92 95 L 156 95 L 156 159 L 92 159 Z M 92 95 " clip-rule="nonzero"/></clipPath><clipPath id="7dd968a8e9"><path d="M 162.238281 123.738281 L 120.078125 165.898438 L 85.105469 130.925781 L 127.265625 88.765625 Z M 162.238281 123.738281 " clip-rule="nonzero"/></clipPath><clipPath id="9f9e704558"><path d="M 150.039062 135.9375 L 132.492188 153.484375 C 125.753906 160.222656 114.832031 160.222656 108.097656 153.484375 L 97.542969 142.933594 C 90.808594 136.195312 90.808594 125.273438 97.542969 118.535156 L 115.09375 100.988281 C 121.828125 94.253906 132.75 94.253906 139.488281 100.988281 L 150.039062 111.542969 C 156.777344 118.277344 156.777344 129.199219 150.039062 135.9375 " clip-rule="nonzero"/></clipPath><clipPath id="4caa643858"><path d="M 202 217 L 265 217 L 265 278 L 202 278 Z M 202 217 " clip-rule="nonzero"/></clipPath><clipPath id="9da998e8c6"><path d="M 198.871094 228.394531 L 253.667969 213.027344 L 268.667969 266.523438 L 213.867188 281.886719 Z M 198.871094 228.394531 " clip-rule="nonzero"/></clipPath><clipPath id="e3f0505b51"><path d="M 215.480469 223.734375 L 237.03125 217.691406 C 246.203125 215.121094 255.726562 220.472656 258.296875 229.644531 L 263.816406 249.332031 C 266.390625 258.503906 261.039062 268.027344 251.863281 270.597656 L 230.3125 276.640625 C 221.140625 279.214844 211.617188 273.863281 209.046875 264.6875 L 203.527344 245.003906 C 200.953125 235.828125 206.304688 226.308594 215.480469 223.734375 " clip-rule="nonzero"/></clipPath><clipPath id="690c148ca5"><path d="M 121 216 L 184 216 L 184 278 L 121 278 Z M 121 216 " clip-rule="nonzero"/></clipPath><clipPath id="68a6dae69f"><path d="M 131.039062 213.316406 L 186.5 226.09375 L 173.722656 281.550781 L 118.261719 268.777344 Z M 131.039062 213.316406 " clip-rule="nonzero"/></clipPath><clipPath id="9b00369cc3"><path d="M 147.847656 217.1875 L 169.660156 222.214844 C 178.945312 224.351562 184.738281 233.613281 182.597656 242.894531 L 177.625 264.488281 C 175.484375 273.773438 166.226562 279.5625 156.941406 277.425781 L 135.128906 272.402344 C 125.847656 270.261719 120.054688 261.003906 122.191406 251.71875 L 127.167969 230.125 C 129.304688 220.84375 138.566406 215.050781 147.847656 217.1875 " clip-rule="nonzero"/></clipPath><clipPath id="8c87068aa4"><path d="M 103.433594 297.445312 L 165.820312 297.445312 L 165.820312 359.832031 L 103.433594 359.832031 Z M 103.433594 297.445312 " clip-rule="nonzero"/></clipPath><clipPath id="0403ae7366"><path d="M 134.628906 297.445312 C 117.398438 297.445312 103.433594 311.410156 103.433594 328.640625 C 103.433594 345.867188 117.398438 359.832031 134.628906 359.832031 C 151.855469 359.832031 165.820312 345.867188 165.820312 328.640625 C 165.820312 311.410156 151.855469 297.445312 134.628906 297.445312 " clip-rule="nonzero"/></clipPath><clipPath id="7a20e906fe"><path d="M 223.734375 297.445312 L 286.121094 297.445312 L 286.121094 359.832031 L 223.734375 359.832031 Z M 223.734375 297.445312 " clip-rule="nonzero"/></clipPath><clipPath id="9bdede9c3a"><path d="M 254.925781 297.445312 C 237.699219 297.445312 223.734375 311.410156 223.734375 328.640625 C 223.734375 345.867188 237.699219 359.832031 254.925781 359.832031 C 272.15625 359.832031 286.121094 345.867188 286.121094 328.640625 C 286.121094 311.410156 272.15625 297.445312 254.925781 297.445312 " clip-rule="nonzero"/></clipPath></defs><rect x="-37.5" width="450" fill="#ffffff" y="-37.499999" height="449.999989" fill-opacity="1"/><rect x="-37.5" width="450" fill="#ffffff" y="-37.499999" height="449.999989" fill-opacity="1"/><g clip-path="url(#154d9339dc)"><g clip-path="url(#0dced1fac8)"><path fill="#004aad" d="M 75.234375 82.730469 L 290.6875 82.730469 L 290.6875 256.179688 L 75.234375 256.179688 Z M 75.234375 82.730469 " fill-opacity="1" fill-rule="nonzero"/></g></g><g clip-path="url(#670716757c)"><g clip-path="url(#c3daf5e84b)"><path fill="#f68bd5" d="M 152.398438 15.167969 L 223.734375 15.167969 L 223.734375 101.367188 L 152.398438 101.367188 Z M 152.398438 15.167969 " fill-opacity="1" fill-rule="nonzero"/></g></g><g clip-path="url(#0df939caba)"><g clip-path="url(#57d7dd95fa)"><g clip-path="url(#bfe04bd9c7)"><path fill="#f68bd5" d="M 131.039062 213.316406 L 186.5 226.09375 L 156.6875 355.5 L 101.226562 342.722656 Z M 131.039062 213.316406 " fill-opacity="1" fill-rule="nonzero"/></g></g></g><g clip-path="url(#f24e848452)"><g clip-path="url(#2fbc2a1042)"><g clip-path="url(#3308f89efd)"><path fill="#f68bd5" d="M 198.867188 228.671875 L 253.667969 213.308594 L 289.335938 340.519531 L 234.535156 355.882812 Z M 198.867188 228.671875 " fill-opacity="1" fill-rule="nonzero"/></g></g></g><g clip-path="url(#7561fa20b4)"><g clip-path="url(#53e639bf73)"><g clip-path="url(#943f88c41b)"><path fill="#f68bd5" d="M 231.898438 88.792969 L 344.476562 166.617188 L 316.355469 207.300781 L 203.773438 129.480469 Z M 231.898438 88.792969 " fill-opacity="1" fill-rule="nonzero"/></g></g></g><g clip-path="url(#eda7854beb)"><g clip-path="url(#0cd2f43302)"><g clip-path="url(#4333c3ee0c)"><path fill="#f68bd5" d="M 162.242188 123.738281 L 65.464844 220.511719 L 30.492188 185.539062 L 127.269531 88.765625 Z M 162.242188 123.738281 " fill-opacity="1" fill-rule="nonzero"/></g></g></g><g clip-path="url(#9c0dbc7704)"><g clip-path="url(#ac2a95ac9d)"><g clip-path="url(#b16f8c9d52)"><path fill="#004aad" d="M 231.898438 88.796875 L 284.285156 125.007812 L 256.160156 165.695312 L 203.773438 129.480469 Z M 231.898438 88.796875 " fill-opacity="1" fill-rule="nonzero"/></g></g></g><g clip-path="url(#9fff4f0c3a)"><g clip-path="url(#7dd968a8e9)"><g clip-path="url(#9f9e704558)"><path fill="#004aad" d="M 162.238281 123.738281 L 120.078125 165.898438 L 85.105469 130.925781 L 127.265625 88.765625 Z M 162.238281 123.738281 " fill-opacity="1" fill-rule="nonzero"/></g></g></g><g clip-path="url(#4caa643858)"><g clip-path="url(#9da998e8c6)"><g clip-path="url(#e3f0505b51)"><path fill="#004aad" d="M 198.871094 228.394531 L 253.667969 213.027344 L 268.484375 265.871094 L 213.683594 281.234375 Z M 198.871094 228.394531 " fill-opacity="1" fill-rule="nonzero"/></g></g></g><g clip-path="url(#690c148ca5)"><g clip-path="url(#68a6dae69f)"><g clip-path="url(#9b00369cc3)"><path fill="#004aad" d="M 131.039062 213.316406 L 186.5 226.09375 L 173.722656 281.550781 L 118.261719 268.777344 Z M 131.039062 213.316406 " fill-opacity="1" fill-rule="nonzero"/></g></g></g><g clip-path="url(#8c87068aa4)"><g clip-path="url(#0403ae7366)"><path fill="#04387d" d="M 103.433594 297.445312 L 165.820312 297.445312 L 165.820312 359.832031 L 103.433594 359.832031 Z M 103.433594 297.445312 " fill-opacity="1" fill-rule="nonzero"/></g></g><g clip-path="url(#7a20e906fe)"><g clip-path="url(#9bdede9c3a)"><path fill="#04387d" d="M 223.734375 297.445312 L 286.121094 297.445312 L 286.121094 359.832031 L 223.734375 359.832031 Z M 223.734375 297.445312 " fill-opacity="1" fill-rule="nonzero"/></g></g></svg>