<svg xmlns="http://www.w3.org/2000/svg" xmlns:xlink="http://www.w3.org/1999/xlink" width="500" zoomAndPan="magnify" viewBox="0 0 375 374.999991" height="500" preserveAspectRatio="xMidYMid meet" version="1.0"><defs><clipPath id="77e04a41f6"><path d="M 128 211 L 186 211 L 186 346 L 128 346 Z M 128 211 " clip-rule="nonzero"/></clipPath><clipPath id="43b4c05e6d"><path d="M 141.753906 209.59375 L 187.53125 214.800781 L 172.453125 347.417969 L 126.675781 342.214844 Z M 141.753906 209.59375 " clip-rule="nonzero"/></clipPath><clipPath id="069a840bfa"><path d="M 158.894531 211.542969 L 169.863281 212.789062 C 179.332031 213.867188 186.132812 222.414062 185.054688 231.878906 L 173.914062 329.859375 C 172.839844 339.324219 164.292969 346.125 154.828125 345.050781 L 143.859375 343.804688 C 134.390625 342.726562 127.589844 334.179688 128.667969 324.714844 L 139.808594 226.734375 C 140.882812 217.269531 149.429688 210.46875 158.894531 211.542969 " clip-rule="nonzero"/></clipPath><clipPath id="0531cd95d7"><path d="M 189 209 L 253 209 L 253 343 L 189 343 Z M 189 209 " clip-rule="nonzero"/></clipPath><clipPath id="8bba392177"><path d="M 187.265625 214.03125 L 234.804688 206.675781 L 255.003906 337.242188 L 207.464844 344.59375 Z M 187.265625 214.03125 " clip-rule="nonzero"/></clipPath><clipPath id="780c983c1a"><path d="M 204.3125 211.394531 L 217.398438 209.367188 C 226.8125 207.914062 235.628906 214.363281 237.082031 223.777344 L 251.992188 320.160156 C 253.449219 329.578125 247 338.390625 237.582031 339.847656 L 224.5 341.871094 C 215.082031 343.328125 206.269531 336.875 204.8125 327.460938 L 189.902344 231.078125 C 188.445312 221.664062 194.898438 212.851562 204.3125 211.394531 " clip-rule="nonzero"/></clipPath><clipPath id="7faf54cd4a"><path d="M 187 85 L 286 85 L 286 217 L 187 217 Z M 187 85 " clip-rule="nonzero"/></clipPath><clipPath id="8924d7a748"><path d="M 224.316406 79.207031 L 291.28125 198.566406 L 248.148438 222.765625 L 181.183594 103.410156 Z M 224.316406 79.207031 " clip-rule="nonzero"/></clipPath><clipPath id="61533b46d4"><path d="M 232.757812 94.253906 L 282.828125 183.496094 C 287.488281 191.804688 284.535156 202.320312 276.226562 206.980469 L 263.210938 214.285156 C 254.902344 218.945312 244.386719 215.988281 239.726562 207.679688 L 189.652344 118.433594 C 184.992188 110.125 187.949219 99.613281 196.257812 94.949219 L 209.273438 87.648438 C 217.582031 82.988281 228.09375 85.945312 232.757812 94.253906 " clip-rule="nonzero"/></clipPath><clipPath id="64a1e638ae"><path d="M 89 85 L 187 85 L 187 217 L 89 217 Z M 89 85 " clip-rule="nonzero"/></clipPath><clipPath id="a7b81ad662"><path d="M 193.003906 102.945312 L 127.007812 222.839844 L 83.675781 198.992188 L 149.675781 79.09375 Z M 193.003906 102.945312 " clip-rule="nonzero"/></clipPath><clipPath id="cfe72771f8"><path d="M 184.683594 118.054688 L 135.339844 207.703125 C 130.746094 216.050781 120.253906 219.089844 111.910156 214.496094 L 98.835938 207.300781 C 90.488281 202.707031 87.449219 192.21875 92.042969 183.871094 L 141.386719 94.222656 C 145.980469 85.878906 156.472656 82.835938 164.816406 87.429688 L 177.890625 94.625 C 186.238281 99.21875 189.277344 109.710938 184.683594 118.054688 " clip-rule="nonzero"/></clipPath><clipPath id="07f2fae1a8"><path d="M 187 85 L 250 85 L 250 153 L 187 153 Z M 187 85 " clip-rule="nonzero"/></clipPath><clipPath id="3e946da084"><path d="M 224.316406 79.210938 L 255.808594 135.34375 L 212.675781 159.542969 L 181.179688 103.410156 Z M 224.316406 79.210938 " clip-rule="nonzero"/></clipPath><clipPath id="a151927545"><path d="M 232.753906 94.253906 L 247.054688 119.742188 C 251.714844 128.050781 248.757812 138.5625 240.449219 143.226562 L 227.4375 150.527344 C 219.128906 155.1875 208.613281 152.234375 203.953125 143.925781 L 189.652344 118.4375 C 184.992188 110.128906 187.949219 99.613281 196.257812 94.953125 L 209.269531 87.652344 C 217.578125 82.988281 228.09375 85.945312 232.753906 94.253906 " clip-rule="nonzero"/></clipPath><clipPath id="bfa1057c43"><path d="M 127 85 L 187 85 L 187 149 L 127 149 Z M 127 85 " clip-rule="nonzero"/></clipPath><clipPath id="583e02eb18"><path d="M 193.027344 102.769531 L 164.273438 155.003906 L 120.945312 131.152344 L 149.695312 78.921875 Z M 193.027344 102.769531 " clip-rule="nonzero"/></clipPath><clipPath id="f4ae603a95"><path d="M 184.707031 117.882812 L 172.742188 139.625 C 168.144531 147.96875 157.65625 151.011719 149.308594 146.417969 L 136.238281 139.21875 C 127.890625 134.625 124.847656 124.136719 129.445312 115.789062 L 141.410156 94.050781 C 146.003906 85.703125 156.496094 82.664062 164.839844 87.257812 L 177.914062 94.453125 C 186.261719 99.046875 189.300781 109.535156 184.707031 117.882812 " clip-rule="nonzero"/></clipPath><clipPath id="cb1d2186f0"><path d="M 185 209 L 246 209 L 246 268 L 185 268 Z M 185 209 " clip-rule="nonzero"/></clipPath><clipPath id="7bfde8e851"><path d="M 183.261719 215.429688 L 239.503906 206.726562 L 247.996094 261.632812 L 191.753906 270.332031 Z M 183.261719 215.429688 " clip-rule="nonzero"/></clipPath><clipPath id="09934cc85a"><path d="M 200.308594 212.792969 L 222.425781 209.371094 C 231.84375 207.914062 240.65625 214.363281 242.113281 223.78125 L 245.238281 243.984375 C 246.695312 253.398438 240.242188 262.210938 230.828125 263.667969 L 208.707031 267.089844 C 199.292969 268.546875 190.480469 262.097656 189.023438 252.679688 L 185.898438 232.476562 C 184.441406 223.0625 190.894531 214.25 200.308594 212.792969 " clip-rule="nonzero"/></clipPath><clipPath id="e96fba9158"><path d="M 134 211 L 194 211 L 194 271 L 134 271 Z M 134 211 " clip-rule="nonzero"/></clipPath><clipPath id="ffe3caf6ea"><path d="M 139.003906 209.59375 L 195.550781 216.023438 L 189.121094 272.574219 L 132.574219 266.144531 Z M 139.003906 209.59375 " clip-rule="nonzero"/></clipPath><clipPath id="4282ffec7b"><path d="M 156.144531 211.542969 L 178.382812 214.074219 C 187.847656 215.148438 194.648438 223.695312 193.574219 233.160156 L 191.070312 255.175781 C 189.996094 264.644531 181.449219 271.445312 171.980469 270.367188 L 149.742188 267.839844 C 140.277344 266.761719 133.476562 258.21875 134.550781 248.75 L 137.054688 226.734375 C 138.132812 217.269531 146.675781 210.46875 156.144531 211.542969 " clip-rule="nonzero"/></clipPath><clipPath id="879fcf745c"><path d="M 114 295 L 177 295 L 177 358 L 114 358 Z M 114 295 " clip-rule="nonzero"/></clipPath><clipPath id="8ff8abcf8e"><path d="M 110.882812 299.203125 L 172.871094 292.15625 L 179.921875 354.144531 L 117.933594 361.191406 Z M 110.882812 299.203125 " clip-rule="nonzero"/></clipPath><clipPath id="e8176c93ac"><path d="M 141.878906 295.679688 C 124.761719 297.625 112.460938 313.082031 114.40625 330.199219 C 116.355469 347.316406 131.808594 359.613281 148.925781 357.667969 C 166.042969 355.722656 178.34375 340.269531 176.394531 323.152344 C 174.449219 306.03125 158.996094 293.734375 141.878906 295.679688 " clip-rule="nonzero"/></clipPath><clipPath id="28b1d12370"><path d="M 199 290 L 263 290 L 263 353 L 199 353 Z M 199 290 " clip-rule="nonzero"/></clipPath><clipPath id="1901c224f3"><path d="M 203.714844 286.703125 L 265.65625 294.164062 L 258.195312 356.101562 L 196.253906 348.640625 Z M 203.714844 286.703125 " clip-rule="nonzero"/></clipPath><clipPath id="e1064675dd"><path d="M 234.683594 290.433594 C 217.582031 288.371094 202.046875 300.566406 199.984375 317.671875 C 197.925781 334.777344 210.121094 350.3125 227.222656 352.371094 C 244.328125 354.433594 259.863281 342.238281 261.925781 325.132812 C 263.984375 308.027344 251.789062 292.492188 234.683594 290.433594 " clip-rule="nonzero"/></clipPath><clipPath id="c069d51c25"><path d="M 164.753906 87.472656 L 213 87.472656 L 213 245 L 164.753906 245 Z M 164.753906 87.472656 " clip-rule="nonzero"/></clipPath><clipPath id="a3a7f4eac6"><path d="M 212.824219 87.472656 L 212.824219 228.773438 L 188.789062 244.59375 L 164.753906 228.773438 L 164.753906 87.472656 L 212.824219 87.472656 " clip-rule="nonzero"/></clipPath><clipPath id="d78db5f0c8"><path d="M 153.121094 13.808594 L 224.457031 13.808594 L 224.457031 100.75 L 153.121094 100.75 Z M 153.121094 13.808594 " clip-rule="nonzero"/></clipPath><clipPath id="631398dea3"><path d="M 188.789062 13.808594 C 169.089844 13.808594 153.121094 33.128906 153.121094 56.960938 C 153.121094 80.792969 169.089844 100.113281 188.789062 100.113281 C 208.488281 100.113281 224.457031 80.792969 224.457031 56.960938 C 224.457031 33.128906 208.488281 13.808594 188.789062 13.808594 " clip-rule="nonzero"/></clipPath></defs><rect x="-37.5" width="450" fill="#ffffff" y="-37.499999" height="449.999989" fill-opacity="1"/><rect x="-37.5" width="450" fill="#ffffff" y="-37.499999" height="449.999989" fill-opacity="1"/><rect x="-37.5" width="450" fill="#ffffff" y="-37.499999" height="449.999989" fill-opacity="1"/><g clip-path="url(#77e04a41f6)"><g clip-path="url(#43b4c05e6d)"><g clip-path="url(#069a840bfa)"><path fill="#f68bd5" d="M 141.753906 209.59375 L 186.859375 214.722656 L 171.855469 346.667969 L 126.753906 341.539062 Z M 141.753906 209.59375 " fill-opacity="1" fill-rule="nonzero"/></g></g></g><g clip-path="url(#0531cd95d7)"><g clip-path="url(#8bba392177)"><g clip-path="url(#780c983c1a)"><path fill="#f68bd5" d="M 187.265625 214.03125 L 234.136719 206.78125 L 254.332031 337.34375 L 207.464844 344.59375 Z M 187.265625 214.03125 " fill-opacity="1" fill-rule="nonzero"/></g></g></g><g clip-path="url(#7faf54cd4a)"><g clip-path="url(#8924d7a748)"><g clip-path="url(#61533b46d4)"><path fill="#f68bd5" d="M 224.316406 79.207031 L 291.28125 198.566406 L 248.148438 222.765625 L 181.183594 103.410156 Z M 224.316406 79.207031 " fill-opacity="1" fill-rule="nonzero"/></g></g></g><g clip-path="url(#64a1e638ae)"><g clip-path="url(#a7b81ad662)"><g clip-path="url(#cfe72771f8)"><path fill="#f68bd5" d="M 193.003906 102.945312 L 127.007812 222.839844 L 83.675781 198.992188 L 149.675781 79.09375 Z M 193.003906 102.945312 " fill-opacity="1" fill-rule="nonzero"/></g></g></g><g clip-path="url(#07f2fae1a8)"><g clip-path="url(#3e946da084)"><g clip-path="url(#a151927545)"><path fill="#004aad" d="M 224.316406 79.210938 L 255.476562 134.753906 L 212.34375 158.953125 L 181.179688 103.410156 Z M 224.316406 79.210938 " fill-opacity="1" fill-rule="nonzero"/></g></g></g><g clip-path="url(#bfa1057c43)"><g clip-path="url(#583e02eb18)"><g clip-path="url(#f4ae603a95)"><path fill="#004aad" d="M 193.027344 102.769531 L 164.273438 155.003906 L 120.945312 131.152344 L 149.695312 78.921875 Z M 193.027344 102.769531 " fill-opacity="1" fill-rule="nonzero"/></g></g></g><g clip-path="url(#cb1d2186f0)"><g clip-path="url(#7bfde8e851)"><g clip-path="url(#09934cc85a)"><path fill="#004aad" d="M 183.261719 215.429688 L 239.503906 206.726562 L 247.894531 260.960938 L 191.652344 269.664062 Z M 183.261719 215.429688 " fill-opacity="1" fill-rule="nonzero"/></g></g></g><g clip-path="url(#e96fba9158)"><g clip-path="url(#ffe3caf6ea)"><g clip-path="url(#4282ffec7b)"><path fill="#004aad" d="M 139.003906 209.59375 L 195.550781 216.023438 L 189.121094 272.574219 L 132.574219 266.144531 Z M 139.003906 209.59375 " fill-opacity="1" fill-rule="nonzero"/></g></g></g><g clip-path="url(#879fcf745c)"><g clip-path="url(#8ff8abcf8e)"><g clip-path="url(#e8176c93ac)"><path fill="#04387d" d="M 110.882812 299.203125 L 172.871094 292.15625 L 179.921875 354.144531 L 117.933594 361.191406 Z M 110.882812 299.203125 " fill-opacity="1" fill-rule="nonzero"/></g></g></g><g clip-path="url(#28b1d12370)"><g clip-path="url(#1901c224f3)"><g clip-path="url(#e1064675dd)"><path fill="#04387d" d="M 203.714844 286.703125 L 265.65625 294.164062 L 258.195312 356.101562 L 196.253906 348.640625 Z M 203.714844 286.703125 " fill-opacity="1" fill-rule="nonzero"/></g></g></g><g clip-path="url(#c069d51c25)"><g clip-path="url(#a3a7f4eac6)"><path fill="#004aad" d="M 164.753906 87.472656 L 212.800781 87.472656 L 212.800781 244.503906 L 164.753906 244.503906 Z M 164.753906 87.472656 " fill-opacity="1" fill-rule="nonzero"/></g></g><g clip-path="url(#d78db5f0c8)"><g clip-path="url(#631398dea3)"><path fill="#f68bd5" d="M 153.121094 13.808594 L 224.457031 13.808594 L 224.457031 100.003906 L 153.121094 100.003906 Z M 153.121094 13.808594 " fill-opacity="1" fill-rule="nonzero"/></g></g></svg>